<svg width="63" height="74" viewBox="0 0 63 74" fill="none" xmlns="http://www.w3.org/2000/svg">
<path d="M59.032 22.6774H56.6474C54.6753 22.6774 53.0704 24.2839 53.0704 26.2581V26.4622C51.6826 26.9551 50.6858 28.2823 50.6858 29.8387V31.2364C50.6858 32.1924 51.0578 33.0923 51.7339 33.7691L53.0108 35.0474L51.7255 45.9838C48.2392 40.3503 42.6115 36.2779 36.1016 34.7824L35.5686 33.1806C37.3082 32.6996 38.7354 31.4691 39.4495 29.8387H39.9551C42.5853 29.8387 44.7243 27.6975 44.7243 25.0645V19.0968C46.0394 19.0968 47.1089 18.0262 47.1089 16.7097V14.3226C47.1089 13.0061 46.0394 11.9355 44.7243 11.9355H44.5168C43.377 5.06065 37.5025 0 30.4166 0C23.3308 0 17.4563 5.06065 16.3164 11.9355H16.109C14.7939 11.9355 13.7244 13.0061 13.7244 14.3226V16.7097C13.7244 18.0262 14.7939 19.0968 16.109 19.0968V25.0645C16.109 27.6975 18.248 29.8387 20.8782 29.8387H21.3837C22.0991 31.4691 23.5263 32.7008 25.2647 33.1806L24.7305 34.7836C22.0347 35.4018 19.4653 36.5453 17.194 38.1136L14.8451 30.8126C14.838 30.7733 14.8392 30.7339 14.8308 30.6945C14.2323 28.1797 10.678 26.8644 6.71956 27.7046C4.26222 28.2262 2.20907 29.4663 1.22661 31.0191C0.665033 31.9071 0.481418 32.8524 0.696033 33.7547C0.81884 34.2727 1.0728 34.737 1.42453 35.144L9.59421 47.3934C8.39594 50.1505 7.76283 53.0687 7.76283 56.0968C7.76283 61.1861 10.6768 65.5986 14.9167 67.7768V69.2258C14.9167 71.8588 17.0557 74 19.6859 74H23.2628H26.8397H45.9166V58.3729C47.6526 60.6752 50.3496 62.0645 53.3101 62.0645C58.437 62.0645 62.6089 57.8883 62.6089 52.7572V26.2581C62.6089 24.2839 61.004 22.6774 59.032 22.6774ZM53.0704 29.8387C53.0704 29.1811 53.6046 28.6452 54.2628 28.6452H55.4551V26.2581C55.4551 25.6004 55.9892 25.0645 56.6474 25.0645H59.032C59.6901 25.0645 60.2243 25.6004 60.2243 26.2581V33.4194H54.7564L53.4198 32.0814C53.1944 31.8558 53.0704 31.555 53.0704 31.2364V29.8387ZM33.9936 69.2258V71.6129H30.946C31.3562 70.9075 31.6089 70.0995 31.6089 69.2258H33.9936ZM35.1859 66.8387H28.032V61.3651L29.3686 60.0271C29.5916 59.8051 29.898 59.6774 30.2116 59.6774H31.6089C32.2671 59.6774 32.8012 60.2133 32.8012 60.871V62.0645H35.1859C35.844 62.0645 36.3782 62.6004 36.3782 63.2581V65.6452C36.3782 66.3028 35.844 66.8387 35.1859 66.8387ZM33.1339 33.4194L33.8493 35.5677L30.4166 39.8633L26.9828 35.5666L27.6982 33.4182H33.1339V33.4194ZM26.9947 39.4026C26.9423 39.4014 26.8922 39.3871 26.8397 39.3871H19.6859C19.674 39.3871 19.6632 39.3907 19.6513 39.3907C21.3706 38.3666 23.2401 37.6016 25.192 37.1468L26.9947 39.4026ZM19.6859 41.7742H22.7108C22.303 42.4772 22.0705 43.2924 22.0705 44.1613V45.3548H24.4551V44.1613C24.4551 42.8448 25.5246 41.7742 26.8397 41.7742C28.1548 41.7742 29.2243 42.8448 29.2243 44.1613C29.2243 45.4778 28.1548 46.5484 26.8397 46.5484H19.6859C18.3708 46.5484 17.3013 45.4778 17.3013 44.1613C17.3013 42.8448 18.3708 41.7742 19.6859 41.7742ZM17.3013 48.2719C18.0059 48.6825 18.8131 48.9355 19.6859 48.9355H26.8397C27.7125 48.9355 28.5197 48.6825 29.2243 48.2719V57.4455C28.6496 57.6114 28.1167 57.9038 27.6827 58.3395L26.3461 59.6774H22.0705C20.4013 59.6774 18.769 59.2788 17.3013 58.5495V48.2719ZM33.9936 58.2153C33.3592 57.6448 32.527 57.2903 31.6089 57.2903V44.1613C31.6089 43.5979 31.4933 43.0644 31.3133 42.5619L33.9936 39.2093V58.2153ZM39.9551 27.4516V22.6774C41.2702 22.6774 42.3397 23.748 42.3397 25.0645C42.3397 26.381 41.2702 27.4516 39.9551 27.4516ZM42.3397 20.9539C41.635 20.5434 40.8279 20.2903 39.9551 20.2903V19.0968H42.3397V20.9539ZM42.0965 11.9355H33.9936V2.93374C38.0891 4.20368 41.2309 7.60529 42.0965 11.9355ZM31.6089 2.44677V11.9355H29.2243V2.44677C29.6166 2.40858 30.0136 2.3871 30.4166 2.3871C30.8196 2.3871 31.2167 2.40858 31.6089 2.44677ZM26.8397 2.93374V11.9355H18.7368C19.6024 7.60529 22.7441 4.20368 26.8397 2.93374ZM16.1078 14.3226H44.7243V16.7097H16.109L16.1078 14.3226ZM20.8782 19.0968V20.2903C20.0054 20.2903 19.1982 20.5434 18.4936 20.9539V19.0968H20.8782ZM18.4936 25.0645C18.4936 23.748 19.5631 22.6774 20.8782 22.6774V27.4516C19.5631 27.4516 18.4936 26.381 18.4936 25.0645ZM23.2628 27.4516V19.0968H37.5705V27.4516C37.5705 29.4257 35.9656 31.0323 33.9936 31.0323H26.8397C24.8676 31.0323 23.2628 29.4257 23.2628 27.4516ZM3.24041 32.2974C3.86757 31.3068 5.4271 30.4212 7.21556 30.0404C7.89637 29.896 8.53306 29.8327 9.11252 29.8327C10.7996 29.8327 12.0015 30.3675 12.3926 30.9785L12.5094 31.3414C12.538 31.5861 12.4748 31.8558 12.2852 32.1554C11.6581 33.146 10.0986 34.0316 8.3101 34.4124C5.84918 34.934 3.99037 34.3909 3.30003 33.6616L3.06634 33.3107C3.05203 33.2749 3.02341 33.2415 3.01388 33.2057C2.95188 32.9384 3.02818 32.634 3.24041 32.2974ZM6.45725 36.9988C7.20841 36.9988 7.99891 36.9176 8.8061 36.7458C10.7221 36.3388 12.3854 35.4925 13.4942 34.404L15.7632 41.4567C15.2314 42.2266 14.9167 43.1563 14.9167 44.1613V51.0767L5.49268 36.9475C5.80625 36.9785 6.12699 36.9988 6.45725 36.9988ZM10.1474 56.0968C10.1474 53.9257 10.4992 51.8131 11.1919 49.7925L14.9167 55.3771V56.9179C14.3968 56.4525 13.9104 55.9464 13.4859 55.3806L11.5782 56.8129C14.0415 60.1011 17.9642 62.0645 22.0705 62.0645H25.6474V66.8387H20.8782C14.9608 66.8387 10.1474 62.0192 10.1474 56.0968ZM23.2628 71.6129H19.6859C18.3708 71.6129 17.3013 70.5423 17.3013 69.2258V68.7174C18.4399 69.0408 19.637 69.2258 20.8782 69.2258H29.2243C29.2243 70.5423 28.1548 71.6129 26.8397 71.6129H23.2628ZM53.3101 59.6774C50.6751 59.6774 48.306 58.2117 47.1268 55.8521L45.9166 53.428V48.9355H43.532V71.6129H36.3782V69.0062C37.7624 68.5121 38.7628 67.1992 38.7628 65.6452V63.2581C38.7628 61.7041 37.7624 60.3912 36.3782 59.897V37.3151C42.844 39.0577 48.2655 43.6266 51.0555 49.7698L51.2355 50.1648L50.6954 54.7648L53.0633 55.0429L55.3227 35.8065H60.2243V52.7572C60.2243 56.573 57.1219 59.6774 53.3101 59.6774Z" fill="#EE1F23"/>
</svg>
